<svg width="608" height="76" viewBox="0 0 608 76" fill="none" xmlns="http://www.w3.org/2000/svg">
<g clip-path="url(#clip0_30_175)">
<path d="M65.1846 63.9795C63.5297 63.9795 61.9552 63.7664 60.4603 63.3398C58.9658 62.8597 57.5243 62.1934 56.1367 61.3405V61.4204C53.5209 59.7675 52.2129 56.7282 52.2129 52.303V48.384C52.2129 46.1981 52.5866 44.3056 53.3341 42.7057C54.1346 41.0532 55.2289 39.7467 56.6169 38.787H56.5369C57.8715 37.8807 59.286 37.214 60.7806 36.7878C62.2755 36.3077 63.7166 36.0677 65.1046 36.0677H82.8005V28.6301C82.8005 27.2972 82.3737 26.0975 81.5194 25.0311C80.7189 23.9115 79.3309 23.3516 77.3557 23.3516H67.9871C65.9589 23.3516 64.544 23.8581 63.7435 24.8712C62.996 25.8309 62.6223 26.9773 62.6223 28.3102V28.95C62.6223 31.7224 61.1278 33.1087 58.1383 33.1087C55.1489 33.1087 53.6544 31.7224 53.6544 28.95V28.23C53.6544 26.0441 54.0281 24.2047 54.7752 22.7118C55.5761 21.2189 56.6438 19.966 57.9784 18.9529H57.898C59.286 18.0465 60.7275 17.3001 62.222 16.7136C63.77 16.1271 65.238 15.8338 66.626 15.8338H78.7972C80.1314 15.8338 81.5463 16.1271 83.0408 16.7136C84.5888 17.3001 86.0303 18.0465 87.3648 18.9529H87.2845C88.6725 19.966 89.7402 21.2989 90.4877 22.9517C91.2348 24.5513 91.6085 26.4173 91.6085 28.5499V60.6204C91.6085 63.1796 90.1405 64.4596 87.2045 64.4596C86.6174 64.4596 86.0568 64.4327 85.5231 64.3793C85.0425 64.3259 84.5888 64.1927 84.162 63.9795C83.7883 63.713 83.468 63.3662 83.2012 62.94C82.9874 62.4599 82.8809 61.847 82.8809 61.1005L82.8005 43.5855H66.626C65.4518 43.5855 64.544 43.7188 63.9034 43.9857C63.2629 44.2522 62.7557 44.6785 62.382 45.2653C61.9552 46.1716 61.6349 46.8913 61.4211 47.4243C61.2612 47.9043 61.1812 48.4643 61.1812 49.1041V52.2232C61.1812 53.6091 61.5815 54.6756 62.382 55.4222C63.2363 56.1153 64.6774 56.4617 66.706 56.4617H75.6743C77.6495 56.4617 78.6368 57.7148 78.6368 60.2206C78.6368 61.2871 78.3965 62.1934 77.9163 62.94C77.4357 63.6332 76.6886 63.9795 75.6743 63.9795H65.1846ZM126.789 29.1901C126.789 28.4969 126.682 27.8302 126.468 27.1904C126.255 26.4972 125.988 25.8574 125.667 25.2711C124.973 23.9914 123.532 23.3516 121.344 23.3516H116.219C114.03 23.3516 112.562 23.9914 111.815 25.2711C111.174 26.4972 110.854 27.8037 110.854 29.1901V60.8604C110.854 63.3662 109.386 64.6193 106.45 64.6193C103.407 64.6193 101.886 63.3662 101.886 60.8604V28.47C101.886 24.0981 103.327 20.899 106.21 18.873C109.146 16.8469 112.002 15.8338 114.778 15.8338H122.865C124.093 15.8338 125.454 16.0738 126.948 16.5536C128.443 17.0335 129.884 17.7799 131.272 18.793C132.607 17.7799 133.995 17.0335 135.436 16.5536C136.931 16.0738 138.346 15.8338 139.68 15.8338H147.687C150.516 15.8338 153.346 16.8469 156.175 18.873C159.111 20.8457 160.579 24.0448 160.579 28.47V60.8604C160.579 63.3662 159.084 64.6193 156.095 64.6193C153.106 64.6193 151.611 63.3662 151.611 60.8604V29.1901C151.611 28.4969 151.531 27.8037 151.371 27.1105C151.21 26.4173 150.917 25.7776 150.49 25.1911L150.57 25.2711C150.143 24.5779 149.609 24.0981 148.968 23.8315C148.328 23.5116 147.394 23.3516 146.166 23.3516H141.121C138.879 23.3516 137.411 23.9914 136.717 25.2711C136.024 26.4438 135.676 27.7503 135.676 29.1901V60.8604C135.676 63.3662 134.208 64.6193 131.272 64.6193C128.283 64.6193 126.789 63.3662 126.789 60.8604V29.1901ZM169.748 23.3516C167.827 23.3516 166.812 22.0986 166.706 19.5927C166.706 17.0868 167.72 15.8338 169.748 15.8338H197.534C199.242 15.8338 200.576 16.1271 201.537 16.7136C202.551 17.2468 203.112 17.9932 203.219 18.9529C203.272 19.806 203.245 20.6591 203.139 21.5121C203.085 22.3652 202.899 23.005 202.578 23.4316L177.996 56.4617H200.656C202.578 56.4617 203.539 57.7148 203.539 60.2206C203.646 61.5002 203.432 62.4599 202.899 63.0997C202.365 63.6862 201.617 63.9795 200.656 63.9795H171.91C168.441 63.9795 166.572 62.9665 166.305 60.9403C166.145 59.0743 166.332 57.5547 166.866 56.3819L191.528 23.3516H169.748ZM222.436 63.9795C220.781 63.9795 219.207 63.7664 217.712 63.3398C216.217 62.8597 214.776 62.1934 213.388 61.3405V61.4204C210.772 59.7675 209.464 56.7282 209.464 52.303V48.384C209.464 46.1981 209.838 44.3056 210.585 42.7057C211.386 41.0532 212.481 39.7467 213.868 38.787H213.788C215.123 37.8807 216.537 37.214 218.032 36.7878C219.527 36.3077 220.968 36.0677 222.356 36.0677H240.052V28.6301C240.052 27.2972 239.625 26.0975 238.771 25.0311C237.97 23.9115 236.582 23.3516 234.607 23.3516H225.239C223.21 23.3516 221.795 23.8581 220.995 24.8712C220.247 25.8309 219.874 26.9773 219.874 28.3102V28.95C219.874 31.7224 218.379 33.1087 215.39 33.1087C212.4 33.1087 210.906 31.7224 210.906 28.95V28.23C210.906 26.0441 211.279 24.2047 212.027 22.7118C212.827 21.2189 213.895 19.966 215.23 18.9529H215.149C216.537 18.0465 217.979 17.3001 219.473 16.7136C221.021 16.1271 222.489 15.8338 223.877 15.8338H236.049C237.383 15.8338 238.798 16.1271 240.292 16.7136C241.84 17.3001 243.282 18.0465 244.616 18.9529H244.536C245.924 19.966 246.992 21.2989 247.739 22.9517C248.486 24.5513 248.86 26.4173 248.86 28.5499V60.6204C248.86 63.1796 247.392 64.4596 244.456 64.4596C243.869 64.4596 243.308 64.4327 242.775 64.3793C242.294 64.3259 241.84 64.1927 241.413 63.9795C241.04 63.713 240.719 63.3662 240.453 62.94C240.239 62.4599 240.132 61.847 240.132 61.1005L240.052 43.5855H223.877C222.703 43.5855 221.795 43.7188 221.155 43.9857C220.514 44.2522 220.007 44.6785 219.634 45.2653C219.207 46.1716 218.886 46.8913 218.673 47.4243C218.513 47.9043 218.433 48.4643 218.433 49.1041V52.2232C218.433 53.6091 218.833 54.6756 219.634 55.4222C220.488 56.1153 221.929 56.4617 223.957 56.4617H232.926C234.901 56.4617 235.888 57.7148 235.888 60.2206C235.888 61.2871 235.648 62.1934 235.168 62.94C234.687 63.6332 233.94 63.9795 232.926 63.9795H222.436ZM340.044 60.6204C340.044 63.1796 338.576 64.4596 335.64 64.4596C332.704 64.4596 331.236 63.1796 331.236 60.6204V3.8374C331.236 1.27817 332.704 -0.00146484 335.64 -0.00146484C338.576 -0.00146484 340.044 1.27817 340.044 3.8374V15.8338H356.939C359.661 15.8338 362.491 16.8469 365.427 18.873C368.309 20.899 369.751 24.0981 369.751 28.47V60.6204C369.751 63.1796 368.283 64.4596 365.347 64.4596C362.411 64.4596 360.943 63.1796 360.943 60.6204V29.1901C360.943 27.8037 360.515 26.4707 359.661 25.1911L359.741 25.2711C359.047 23.9914 357.633 23.3516 355.498 23.3516H340.044V60.6204ZM392.434 63.9795C390.777 63.9795 389.204 63.7664 387.709 63.3398C386.213 62.8597 384.775 62.1934 383.387 61.3405V61.4204C380.769 59.7675 379.461 56.7282 379.461 52.303V48.384C379.461 46.1981 379.834 44.3056 380.584 42.7057C381.384 41.0532 382.48 39.7467 383.868 38.787H383.787C385.121 37.8807 386.536 37.214 388.028 36.7878C389.523 36.3077 390.965 36.0677 392.353 36.0677H410.048V28.6301C410.048 27.2972 409.621 26.0975 408.767 25.0311C407.968 23.9115 406.58 23.3516 404.603 23.3516H395.237C393.207 23.3516 391.792 23.8581 390.992 24.8712C390.246 25.8309 389.87 26.9773 389.87 28.3102V28.95C389.87 31.7224 388.378 33.1087 385.386 33.1087C382.399 33.1087 380.903 31.7224 380.903 28.95V28.23C380.903 26.0441 381.276 24.2047 382.026 22.7118C382.826 21.2189 383.891 19.966 385.229 18.9529H385.148C386.536 18.0465 387.978 17.3001 389.47 16.7136C391.019 16.1271 392.488 15.8338 393.876 15.8338H406.045C407.379 15.8338 408.794 16.1271 410.29 16.7136C411.84 17.3001 413.277 18.0465 414.612 18.9529H414.535C415.923 19.966 416.988 21.2989 417.738 22.9517C418.484 24.5513 418.857 26.4173 418.857 28.5499V60.6204C418.857 63.1796 417.388 64.4596 414.454 64.4596C413.866 64.4596 413.304 64.4327 412.77 64.3793C412.293 64.3259 411.84 64.1927 411.409 63.9795C411.036 63.713 410.717 63.3662 410.451 62.94C410.236 62.4599 410.128 61.847 410.128 61.1005L410.048 43.5855H393.876C392.699 43.5855 391.792 43.7188 391.154 43.9857C390.512 44.2522 390.004 44.6785 389.631 45.2653C389.204 46.1716 388.885 46.8913 388.67 47.4243C388.508 47.9043 388.432 48.4643 388.432 49.1041V52.2232C388.432 53.6091 388.831 54.6756 389.631 55.4222C390.485 56.1153 391.927 56.4617 393.957 56.4617H402.923C404.899 56.4617 405.888 57.7148 405.888 60.2206C405.888 61.2871 405.645 62.1934 405.165 62.94C404.684 63.6332 403.938 63.9795 402.923 63.9795H392.434ZM438.024 60.6204C438.024 63.1796 436.555 64.4596 433.617 64.4596C430.684 64.4596 429.215 63.1796 429.215 60.6204V28.47C429.215 26.2841 429.561 24.3913 430.257 22.7918C430.949 21.1922 432.045 19.886 433.54 18.873C436.366 16.8469 439.196 15.8338 442.026 15.8338H454.918C457.64 15.8338 460.47 16.8469 463.404 18.873C466.288 20.899 467.73 24.0981 467.73 28.47V60.6204C467.73 63.1796 466.261 64.4596 463.327 64.4596C460.389 64.4596 458.921 63.1796 458.921 60.6204V29.1901C458.921 27.8037 458.494 26.4707 457.64 25.1911L457.721 25.2711C457.025 23.9914 455.61 23.3516 453.476 23.3516H443.468C441.28 23.3516 439.838 23.9914 439.142 25.2711C438.396 26.3909 438.024 27.6969 438.024 29.1901V60.6204Z" fill="#F9F5FF"/>
<path d="M314.537 12.9591C315.337 11.9994 316.245 11.5195 317.259 11.5195C318.38 11.5195 319.528 12.0261 320.702 13.0391C321.289 13.6256 321.77 14.2121 322.144 14.7986C322.571 15.385 322.784 15.9715 322.784 16.558C322.784 17.5178 322.437 18.3442 321.743 19.0373L311.014 31.5135L290.114 56.0662V72.1414C290.114 74.7006 288.513 75.9806 285.31 75.9806C282.161 75.9806 280.586 74.7006 280.586 72.1414V15.4384C280.586 12.8791 282.161 11.5995 285.31 11.5995C288.513 11.5995 290.114 12.8791 290.114 15.4384V41.5905L314.537 12.9591ZM303.166 50.9478C302.632 50.2013 302.366 49.2949 302.366 48.2285C302.366 46.629 303.033 45.3494 304.367 44.3897H304.287C305.355 43.6435 306.423 43.2702 307.49 43.2702C308.504 43.2702 309.359 43.8567 310.053 45.0295L325.507 67.5829L325.426 67.5031C325.907 68.2492 326.147 69.0492 326.147 69.9021C326.147 71.2885 325.453 72.5147 324.065 73.5812H324.145C323.558 73.9544 322.998 74.2474 322.464 74.461C321.93 74.6741 321.45 74.7809 321.022 74.7809C320.596 74.7809 320.142 74.6207 319.661 74.3008C319.234 73.9809 318.807 73.5812 318.38 73.1011L303.166 50.9478Z" fill="#EFC100"/>
<path d="M496.861 47.9893V40.9511C504.44 37.7521 511.833 34.5796 519.039 31.434C526.302 28.2884 533.719 25.0893 541.301 21.8369V28.9547L505.028 44.47C506.254 45.0034 507.669 45.6163 509.273 46.3095C510.926 47.0027 513.087 47.9359 515.759 49.1087C518.428 50.282 521.788 51.7482 525.848 53.5074C529.959 55.2671 535.107 57.453 541.301 60.0656V67.1836L496.861 47.9893ZM563.559 67.1836V60.0656L599.994 44.5503C597.11 43.3237 594.123 42.071 591.028 40.7914C587.982 39.4584 584.914 38.1254 581.819 36.7924C578.72 35.4595 575.625 34.1265 572.53 32.7935C569.434 31.4605 566.443 30.1809 563.559 28.9547V21.8369C567.404 23.4898 571.169 25.1159 574.852 26.7154C578.535 28.3149 582.192 29.9144 585.822 31.5139C589.451 33.0604 593.108 34.633 596.791 36.2325C600.475 37.779 604.212 39.3516 608.003 40.9511V47.9893L563.559 67.1836Z" fill="#EFC100"/>
<path d="M33.8551 3.91748C33.8551 1.35821 35.4296 0.0786133 38.5794 0.0786133C41.7822 0.0786133 43.3836 1.35821 43.3836 3.91748V60.6205C43.3836 63.1797 41.7822 64.4597 38.5794 64.4597C35.4296 64.4597 33.8551 63.1797 33.8551 60.6205V3.91748ZM9.51298 60.6205C9.51298 63.1797 7.91156 64.4597 4.70865 64.4597C1.55915 64.4597 -0.015625 63.1797 -0.015625 60.6205V3.91748C-0.015625 1.35821 1.55915 0.0786133 4.70865 0.0786133C7.91156 0.0786133 9.51298 1.35821 9.51298 3.91748V60.6205ZM28.2499 30.9494C28.2499 32.8154 27.6093 34.3884 26.3282 35.668C25.047 36.9476 23.4723 37.5874 21.6039 37.5874C19.789 37.5874 18.2409 36.9476 16.9597 35.668C15.6786 34.3884 15.038 32.8154 15.038 30.9494C15.038 29.0834 15.6786 27.5104 16.9597 26.2308C18.2409 24.9512 19.789 24.3114 21.6039 24.3114C23.4723 24.3114 25.047 24.9512 26.3282 26.2308C27.6093 27.5104 28.2499 29.0834 28.2499 30.9494Z" fill="#EFC100"/>
</g>
<defs>
<clipPath id="clip0_30_175">
<rect width="608" height="76" fill="white"/>
</clipPath>
</defs>
</svg>
