<svg width="50" height="50" viewBox="0 0 50 50" fill="none" xmlns="http://www.w3.org/2000/svg">
<g clip-path="url(#clip0_30_470)">
<path fill-rule="evenodd" clip-rule="evenodd" d="M25.0009 1.04199C19.066 1.04507 13.3256 3.14711 8.80633 6.97225C4.28704 10.7974 1.28349 16.0962 0.33274 21.9212C-0.618007 27.7461 0.546037 33.7174 3.61675 38.7674C6.68747 43.8173 11.4646 47.6165 17.094 49.4857C18.3359 49.7162 18.8037 48.9465 18.8037 48.292C18.8037 47.6375 18.7788 45.7399 18.7706 43.6654C11.8158 45.1678 10.3462 40.7305 10.3462 40.7305C9.21187 37.8492 7.57252 37.0918 7.57252 37.0918C5.30393 35.5523 7.74226 35.5811 7.74226 35.5811C10.2551 35.7581 11.5757 38.1455 11.5757 38.1455C13.8029 41.9448 17.4251 40.8458 18.8492 40.2036C19.0728 38.5942 19.7227 37.4993 20.4389 36.8777C14.8833 36.2521 9.04627 34.1199 9.04627 24.595C9.01184 22.1247 9.93374 19.7359 11.6212 17.9226C11.3645 17.2969 10.5076 14.7696 11.8654 11.3366C11.8654 11.3366 13.9643 10.6698 18.7416 13.8846C22.8392 12.7704 27.1626 12.7704 31.2602 13.8846C36.0334 10.6698 38.1281 11.3366 38.1281 11.3366C39.49 14.7613 38.6331 17.2887 38.3765 17.9226C40.0693 19.7361 40.9931 22.1292 40.9555 24.6032C40.9555 34.1487 35.106 36.2521 29.5422 36.8654C30.4364 37.6392 31.2354 39.1499 31.2354 41.4714C31.2354 44.7973 31.2064 47.4729 31.2064 48.292C31.2064 48.9547 31.6576 49.7285 32.9244 49.4857C38.5544 47.6163 43.332 43.8164 46.4027 38.7656C49.4733 33.7148 50.6368 27.7426 49.685 21.9171C48.7331 16.0916 45.7281 10.7927 41.2073 6.96825C36.6865 3.14378 30.9448 1.04312 25.0092 1.04199H25.0009Z" fill="white"/>
<path d="M9.46677 36.7333C9.41295 36.8568 9.21425 36.8938 9.0528 36.8074C8.89135 36.721 8.7713 36.5604 8.82926 36.4328C8.88722 36.3052 9.08178 36.2723 9.24323 36.3587C9.40468 36.4452 9.52887 36.6098 9.46677 36.7333Z" fill="white"/>
<path d="M10.4814 37.8572C10.3957 37.9001 10.2976 37.9121 10.2039 37.8911C10.1103 37.8701 10.0269 37.8174 9.96808 37.7419C9.80662 37.5691 9.77349 37.3303 9.89768 37.2233C10.0219 37.1163 10.2454 37.1657 10.4069 37.3386C10.5683 37.5114 10.6056 37.7502 10.4814 37.8572Z" fill="white"/>
<path d="M11.4688 39.2855C11.3156 39.3926 11.0548 39.2855 10.9099 39.0715C10.8698 39.0331 10.838 38.9871 10.8162 38.9361C10.7944 38.8852 10.7832 38.8305 10.7832 38.7751C10.7832 38.7198 10.7944 38.665 10.8162 38.6141C10.838 38.5632 10.8698 38.5172 10.9099 38.4788C11.0631 38.3759 11.3239 38.4788 11.4688 38.6887C11.6137 38.8986 11.6178 39.1785 11.4688 39.2855Z" fill="white"/>
<path d="M12.8042 40.6684C12.6676 40.8207 12.3902 40.7796 12.1625 40.5738C11.9349 40.3679 11.881 40.088 12.0176 39.9399C12.1543 39.7917 12.4316 39.8328 12.6676 40.0345C12.9036 40.2362 12.9491 40.5202 12.8042 40.6684Z" fill="white"/>
<path d="M14.6792 41.4748C14.6171 41.6683 14.3356 41.7547 14.0541 41.6724C13.7726 41.5901 13.5863 41.3596 13.6401 41.162C13.6939 40.9644 13.9796 40.8739 14.2652 40.9644C14.5509 41.055 14.733 41.2731 14.6792 41.4748Z" fill="white"/>
<path d="M16.7245 41.6147C16.7245 41.8164 16.4927 41.9893 16.1947 41.9934C15.8966 41.9976 15.6523 41.8329 15.6523 41.6312C15.6523 41.4295 15.8842 41.2566 16.1822 41.2525C16.4803 41.2484 16.7245 41.4089 16.7245 41.6147Z" fill="white"/>
<path d="M18.6287 41.2983C18.6659 41.5 18.4589 41.7099 18.1609 41.7593C17.8628 41.8087 17.602 41.6894 17.5647 41.4918C17.5275 41.2942 17.7428 41.0802 18.0325 41.0267C18.3223 40.9731 18.5914 41.0966 18.6287 41.2983Z" fill="white"/>
</g>
<defs>
<clipPath id="clip0_30_470">
<rect width="50" height="50" fill="white"/>
</clipPath>
</defs>
</svg>
