<svg width="181" height="80"  viewBox="0 0 181 80" fill="#fff" xmlns="http://www.w3.org/2000/svg">
<path d="M41.888 18.3578C39.892 15.4964 37.5734 12.7871 35.9251 9.75531C34.2835 6.7351 33.3729 3.3262 33.2435 0C32.3763 2.31974 31.5169 4.64692 31.036 7.02951C30.3185 10.5864 30.5203 14.6983 34.0565 18.5711C31.3605 18.4719 27.4187 14.9216 26.6925 10.8957C26.4434 11.8807 26.2164 12.5837 26.0928 13.2998C25.4681 16.9205 26.5322 20.044 30.0008 22.3448C33.3169 24.5446 37.0877 26.2226 40.1189 28.7358C40.5216 29.0691 40.9078 29.4181 41.2661 29.7878C41.578 30.1095 41.8947 30.4221 42.2588 30.8331C39.6274 28.84 36.9854 27.2985 34.0382 25.8678C27.5799 22.7434 19.6693 21.3689 13.1309 18.3685C6.65043 15.3955 1.74879 10.5137 0 6.96087C1.16457 16.7063 9.9404 28.0056 22.1723 32.1265C12.2 32.3366 5.00496 27.9369 2.51069 23.9591C3.73224 31.6816 9.72796 38.4316 22.9265 40.9639C19.3101 41.1309 16.0848 40.8464 14.3554 40.686C13.1879 40.5777 9.23837 39.9161 7.51662 39.3446C9.09835 41.1111 11.301 42.6683 11.8225 43.0148C17.6028 46.8488 24.2465 48.3895 31.4551 48.3961C32.6226 48.397 33.2299 48.3746 34.9865 48.2853C31.1567 56.7695 31.5343 67.2534 36.2737 75.1356C37.2567 76.7697 38.3479 78.4229 39.8765 79.7519C39.9741 79.8371 40.0745 79.9198 40.1778 80C40.0928 79.8809 39.9972 79.7039 39.9316 79.5915C39.8475 79.4492 39.7635 79.307 39.6815 79.1639C38.3431 76.8326 37.2538 74.383 36.7188 71.8226C36.1829 69.2548 35.8894 66.5397 36.2138 63.938C36.5286 61.4148 37.1814 58.9247 38.1596 56.5297C40.1566 51.638 43.6957 47.4021 46.8533 43.0322C50.2254 38.3638 50.2746 33.1975 48.0865 28.1544C46.5501 24.614 44.1466 21.5947 41.888 18.3578Z" fill="#DAA520"/>
<path d="M52.78 39.64L51.82 42.08C51.6867 42.4533 51.5667 42.84 51.46 43.24C51.3533 43.64 51.24 43.9867 51.12 44.28C51 44.5867 50.8133 44.8267 50.56 45C50.32 45.1733 50.0467 45.3 49.74 45.38C49.4333 45.4733 49.1133 45.5133 48.78 45.5C48.46 45.4867 48.1733 45.4267 47.92 45.32C47.3467 45.0533 47.1467 44.6133 47.32 44C47.9333 41.3067 48.5067 39.1467 49.04 37.52C49.5867 35.8933 50.0333 34.6133 50.38 33.68C50.74 32.7467 51.1133 31.76 51.5 30.72C51.54 30.3333 51.7 29.9867 51.98 29.68C52.26 29.3733 52.5867 29.12 52.96 28.92C53.3467 28.72 53.7467 28.58 54.16 28.5C54.5733 28.4067 54.94 28.3933 55.26 28.46C55.58 28.5267 55.8133 28.6733 55.96 28.9C56.12 29.1267 56.1333 29.4533 56 29.88C55.52 31.1067 55.18 31.9733 54.98 32.48C54.78 32.9867 54.6 33.44 54.44 33.84L53.88 35.16C54.16 35.1733 54.5133 35.1333 54.94 35.04C55.7133 34.8667 56.2733 34.8067 56.62 34.86C56.62 34.7933 56.6533 34.68 56.72 34.52C57.0933 32.8933 57.5133 31.4 57.98 30.04C58.3133 28.92 59.1733 28.3333 60.56 28.28C61.1067 28.28 61.52 28.4133 61.8 28.68C62.1067 28.96 62.1467 29.34 61.92 29.82C60.6933 33.26 59.8267 35.9733 59.32 37.96C58.7467 40.2533 58.3667 41.8 58.18 42.6C58.0067 43.4 57.8533 43.8733 57.72 44.02C57.5867 44.1667 57.4467 44.2667 57.3 44.32C57.1667 44.3867 57.0333 44.4467 56.9 44.5C56.7667 44.5533 56.66 44.6867 56.58 44.9H56.52C56.4133 45.14 56.18 45.3267 55.82 45.46C55.46 45.5933 55.0933 45.64 54.72 45.6C54.36 45.5733 54.0533 45.44 53.8 45.2C53.56 44.9733 53.5 44.62 53.62 44.14C53.7533 43.38 53.9733 42.5667 54.28 41.7C54.5867 40.82 54.8267 40.1333 55 39.64C55.1867 39.1467 55.34 38.6867 55.46 38.26C55.3533 38.3133 55.2467 38.3533 55.14 38.38C55.0467 38.4067 54.9267 38.46 54.78 38.54C54.6333 38.6067 54.48 38.6667 54.32 38.72C54.1733 38.7733 54.0267 38.8267 53.88 38.88C53.5067 39.0267 53.2 39.1733 52.96 39.32L52.78 39.64ZM55.04 38.3C55.0533 38.3 55.12 38.28 55.24 38.24C55.16 38.2667 55.0933 38.2867 55.04 38.3ZM68.9178 35.42L68.9978 35.44C69.0245 35.44 69.0378 35.4467 69.0378 35.46C69.3845 35.3267 69.6711 35.4267 69.8978 35.76C70.0445 35.9867 70.1578 36.3333 70.2378 36.8C70.2645 37.44 70.1978 38.3267 70.0378 39.46C69.7311 41.7533 69.5645 43.12 69.5378 43.56C69.5645 44.0267 69.2778 44.3467 68.6778 44.52C68.1578 44.68 67.6378 44.6733 67.1178 44.5C66.5711 44.3133 66.3445 44.0267 66.4378 43.64C66.3311 43.84 66.2245 43.98 66.1178 44.06C66.0111 44.1533 65.7978 44.2733 65.4778 44.42C65.1711 44.58 64.7311 44.7067 64.1578 44.8C63.5845 44.9067 63.0111 44.9333 62.4378 44.88C61.8645 44.84 61.3378 44.7 60.8578 44.46C60.3911 44.2333 60.0778 43.8733 59.9178 43.38C59.6111 42.42 59.6511 41.2 60.0378 39.72C60.3045 38.7467 60.7845 37.8867 61.4778 37.14C62.2778 36.2867 63.1845 35.58 64.1978 35.02C64.9578 34.6067 65.6911 34.36 66.3978 34.28C66.6378 34.2533 66.8445 34.26 67.0178 34.3C67.2045 34.34 67.3978 34.38 67.5978 34.42C67.8111 34.46 68.0111 34.52 68.1978 34.6C68.6778 34.8 68.9178 35.0733 68.9178 35.42ZM65.2178 40.72C65.3111 40.5333 65.3845 40.3 65.4378 40.02C65.5045 39.74 65.5911 39.4333 65.6978 39.1C64.6178 39.54 63.7911 40.08 63.2178 40.72C62.5911 41.4267 62.6311 41.9133 63.3378 42.18C63.9511 42.34 64.3978 42.24 64.6778 41.88C64.7978 41.72 64.9045 41.52 64.9978 41.28C65.0911 41.04 65.2045 40.7933 65.3378 40.54C65.2978 40.6067 65.2578 40.6667 65.2178 40.72ZM73.2605 35.3C73.2871 35.0467 73.4471 34.84 73.7405 34.68C74.0338 34.52 74.3605 34.44 74.7205 34.44C75.0805 34.44 75.4271 34.5267 75.7605 34.7C76.1071 34.86 76.3405 35.14 76.4605 35.54C77.5938 34.5533 78.6271 34.1733 79.5605 34.4C79.8805 34.4667 80.1538 34.6533 80.3805 34.96C81.0605 34.3067 81.8138 33.88 82.6405 33.68C83.6805 33.64 84.4271 33.88 84.8805 34.4C84.9471 34.4667 85.0138 34.54 85.0805 34.62C85.2671 34.82 85.3738 34.9533 85.4005 35.02C85.6405 35.3933 85.7071 36.2533 85.6005 37.6C85.4538 39.3467 85.1205 41.1 84.6005 42.86C84.3205 43.7533 84.0671 44.2133 83.8405 44.24C83.7071 44.2667 83.5805 44.2667 83.4605 44.24C83.3538 44.2133 83.2538 44.1933 83.1605 44.18C83.0805 44.18 83.0338 44.26 83.0205 44.42C82.7538 44.7667 82.3471 44.94 81.8005 44.94C81.2671 44.94 80.8138 44.7733 80.4405 44.44C80.0271 44.0933 79.8805 43.6867 80.0005 43.22C80.1338 42.74 80.2805 42.2533 80.4405 41.76C80.6005 41.2533 80.7738 40.7333 80.9605 40.2C81.2805 39.2667 81.6338 38.2933 82.0205 37.28C81.7405 37.6 81.3605 38.2067 80.8805 39.1C80.4005 39.98 80.1005 40.5067 79.9805 40.68C79.7538 41.1333 79.5671 41.4933 79.4205 41.76C79.2738 42.0133 79.0738 42.22 78.8205 42.38C78.5805 42.5267 78.3538 42.62 78.1405 42.66C77.9405 42.7 77.7471 42.7067 77.5605 42.68C77.1205 42.6133 76.8071 42.4267 76.6205 42.12C76.5805 42.0133 76.5405 41.9067 76.5005 41.8C76.4605 41.6933 76.4271 41.5467 76.4005 41.36C76.3605 40.9467 76.4138 40.2733 76.5605 39.34L76.5205 39.4C76.6805 39.24 76.7338 39.2 76.6805 39.28C76.1471 40.04 75.8271 40.5267 75.7205 40.74C75.6138 40.9533 75.5005 41.1933 75.3805 41.46C75.2605 41.7133 75.1205 42.0133 74.9605 42.36C74.8005 42.6933 74.6738 42.9933 74.5805 43.26C74.4871 43.5267 74.3738 43.7867 74.2405 44.04C73.6405 45.08 72.5871 45.5 71.0805 45.3C70.7605 45.26 70.4871 45.18 70.2605 45.06C70.0338 44.9533 69.9405 44.7867 69.9805 44.56C70.0871 44.0267 70.3338 43.14 70.7205 41.9C71.4805 39.4467 71.9338 37.8667 72.0805 37.16C72.1738 36.92 72.2538 36.6733 72.3205 36.42C72.4005 36.1667 72.4805 35.9467 72.5605 35.76C72.7205 35.32 72.9538 35.1667 73.2605 35.3ZM80.2005 40.24V40.28C80.2271 40.2267 80.2271 40.2133 80.2005 40.24ZM91.2525 42.06C91.6525 41.9533 92.0858 41.9267 92.5525 41.98C93.0192 42.0333 93.4258 42.1667 93.7725 42.38C94.1192 42.5933 94.3525 42.8867 94.4725 43.26C94.6058 43.6333 94.5258 44.08 94.2325 44.6C94.0858 44.6133 93.7858 44.66 93.3325 44.74C92.8925 44.82 92.3725 44.9067 91.7725 45C91.1858 45.0933 90.5592 45.18 89.8925 45.26C89.2392 45.34 88.6258 45.3867 88.0525 45.4C86.7325 45.4533 85.9992 45.3 85.8525 44.94C85.3325 43.78 85.9058 42.36 87.5725 40.68C88.0125 40.2533 88.4192 39.8667 88.7925 39.52C89.1658 39.16 89.4658 38.8533 89.6925 38.6C89.9325 38.3467 90.0192 38.16 89.9525 38.04C89.6992 37.9867 89.5458 37.9467 89.4925 37.92C89.3992 37.8533 89.1658 37.8 88.7925 37.76C88.4325 37.7067 88.1525 37.58 87.9525 37.38C87.7658 37.1667 87.6858 36.9267 87.7125 36.66C87.7525 36.38 87.8858 36.1 88.1125 35.82C88.3525 35.5267 88.6725 35.2733 89.0725 35.06C89.4725 34.8467 89.8992 34.6667 90.3525 34.52C90.8192 34.3733 91.2925 34.2533 91.7725 34.16C92.5725 33.9867 93.5192 33.8667 94.6125 33.8C94.7592 33.8 94.8592 33.8533 94.9125 33.96C94.9792 34.0533 95.0392 34.16 95.0925 34.28C95.1458 34.3867 95.2125 34.4867 95.2925 34.58C95.3858 34.66 95.5658 34.6867 95.8325 34.66C96.0992 34.62 96.2858 34.7333 96.3925 35C96.5125 35.2533 96.5458 35.5733 96.4925 35.96C96.4392 36.3467 96.3125 36.7467 96.1125 37.16C95.9125 37.56 95.6525 37.88 95.3325 38.12C93.7325 39.72 92.7325 40.7 92.3325 41.06L91.2525 42.06ZM86.7725 42.44C86.7858 42.4267 86.7858 42.4267 86.7725 42.44C86.7592 42.4533 86.7392 42.4667 86.7125 42.48C86.7258 42.48 86.7458 42.4667 86.7725 42.44ZM105.324 35.42L105.404 35.44C105.431 35.44 105.444 35.4467 105.444 35.46C105.791 35.3267 106.077 35.4267 106.304 35.76C106.451 35.9867 106.564 36.3333 106.644 36.8C106.671 37.44 106.604 38.3267 106.444 39.46C106.137 41.7533 105.971 43.12 105.944 43.56C105.971 44.0267 105.684 44.3467 105.084 44.52C104.564 44.68 104.044 44.6733 103.524 44.5C102.977 44.3133 102.751 44.0267 102.844 43.64C102.737 43.84 102.631 43.98 102.524 44.06C102.417 44.1533 102.204 44.2733 101.884 44.42C101.577 44.58 101.137 44.7067 100.564 44.8C99.9907 44.9067 99.4174 44.9333 98.8441 44.88C98.2707 44.84 97.7441 44.7 97.2641 44.46C96.7974 44.2333 96.4841 43.8733 96.3241 43.38C96.0174 42.42 96.0574 41.2 96.4441 39.72C96.7107 38.7467 97.1907 37.8867 97.8841 37.14C98.6841 36.2867 99.5907 35.58 100.604 35.02C101.364 34.6067 102.097 34.36 102.804 34.28C103.044 34.2533 103.251 34.26 103.424 34.3C103.611 34.34 103.804 34.38 104.004 34.42C104.217 34.46 104.417 34.52 104.604 34.6C105.084 34.8 105.324 35.0733 105.324 35.42ZM101.624 40.72C101.717 40.5333 101.791 40.3 101.844 40.02C101.911 39.74 101.997 39.4333 102.104 39.1C101.024 39.54 100.197 40.08 99.6241 40.72C98.9974 41.4267 99.0374 41.9133 99.7441 42.18C100.357 42.34 100.804 42.24 101.084 41.88C101.204 41.72 101.311 41.52 101.404 41.28C101.497 41.04 101.611 40.7933 101.744 40.54C101.704 40.6067 101.664 40.6667 101.624 40.72ZM116.717 29.8C116.971 29.1867 117.331 28.9667 117.797 29.14C117.931 28.8467 118.044 28.66 118.137 28.58C118.244 28.5 118.351 28.44 118.457 28.4C118.564 28.3467 118.677 28.2933 118.797 28.24C118.917 28.1867 119.104 28.14 119.357 28.1C119.611 28.06 119.891 28.04 120.197 28.04C120.504 28.0267 120.811 28.04 121.117 28.08C121.437 28.12 121.704 28.2067 121.917 28.34C122.437 28.6467 122.551 29.14 122.257 29.82C122.284 29.8067 122.277 29.82 122.237 29.86L122.057 30.2L121.917 30.38C121.851 30.4467 121.644 30.8533 121.297 31.6C121.017 32.1333 120.731 32.66 120.437 33.18C119.957 34.0733 119.664 34.6467 119.557 34.9C120.024 34.6467 120.564 34.28 121.177 33.8C122.337 32.9067 123.077 32.3733 123.397 32.2C123.717 32.0267 123.937 31.92 124.057 31.88C124.191 31.84 124.317 31.8333 124.437 31.86C124.557 31.8733 124.684 31.9067 124.817 31.96L125.317 32.16C125.637 32.2667 125.811 32.6533 125.837 33.32C125.851 33.9733 125.717 34.4667 125.437 34.8C124.224 36.3733 122.857 37.4267 121.337 37.96C120.871 38.1333 120.391 38.28 119.897 38.4C120.604 38.48 121.277 38.9467 121.917 39.8C122.437 40.4933 122.811 41.2067 123.037 41.94C123.277 42.6733 123.464 43.22 123.597 43.58C123.731 43.9267 123.784 44.1933 123.757 44.38C123.744 44.58 123.631 44.7267 123.417 44.82C123.217 44.9267 122.871 45.0267 122.377 45.12C122.151 45.16 121.684 44.8933 120.977 44.32C120.671 44.0667 120.344 43.7933 119.997 43.5C119.651 43.1933 119.304 42.9067 118.957 42.64C118.157 42.0133 117.597 41.6867 117.277 41.66C117.251 41.66 117.197 41.6467 117.117 41.62L116.757 42.52C116.571 42.96 116.377 43.4267 116.177 43.92C115.991 44.4 115.764 44.8333 115.497 45.22C115.084 45.5 114.604 45.6133 114.057 45.56C113.431 45.4933 113.017 45.24 112.817 44.8C112.684 44.3867 112.904 43.1733 113.477 41.16C113.864 39.7467 114.197 38.5067 114.477 37.44C114.757 36.3733 114.997 35.4933 115.197 34.8C115.397 34.0933 115.544 33.5467 115.637 33.16C115.731 32.76 115.824 32.3733 115.917 32C116.144 31.1333 116.411 30.4 116.717 29.8ZM135.539 41.86C135.539 42.5667 135.626 43.18 135.799 43.7C135.799 44.1267 135.699 44.4267 135.499 44.6C135.299 44.7867 135.046 44.88 134.739 44.88C134.446 44.8933 134.133 44.8333 133.799 44.7C133.466 44.58 133.179 44.4267 132.939 44.24C132.713 44.0533 132.566 43.9067 132.499 43.8C132.433 43.68 132.326 43.5067 132.179 43.28C131.953 42.2267 131.846 41.54 131.859 41.22C131.873 40.9 131.899 40.6267 131.939 40.4C131.273 40.7467 130.813 41.0467 130.559 41.3C130.093 41.7667 129.699 42.3667 129.379 43.1C129.273 43.6867 129.186 43.9933 129.119 44.02C129.053 44.06 128.966 44.0867 128.859 44.1C128.753 44.1133 128.639 44.16 128.519 44.24C128.399 44.32 128.286 44.3867 128.179 44.44C128.073 44.4933 127.966 44.5467 127.859 44.6C127.606 44.7467 127.439 44.82 127.359 44.82C126.599 45.06 125.873 44.9533 125.179 44.5C124.886 44.3 124.659 44.0467 124.499 43.74C124.339 43.42 124.299 43.08 124.379 42.72C124.953 40.2533 125.739 37.74 126.739 35.18C127.353 33.62 127.939 32.3867 128.499 31.48C128.633 31.2667 128.766 31.04 128.899 30.8C129.179 30.32 129.373 29.9933 129.479 29.82C129.346 29.4733 129.346 29.1733 129.479 28.92C129.626 28.6533 129.839 28.4467 130.119 28.3C130.413 28.14 130.746 28.0333 131.119 27.98C131.493 27.9267 131.846 27.92 132.179 27.96C132.979 28.08 133.406 28.3933 133.459 28.9C133.379 29.14 133.266 29.4267 133.119 29.76C132.986 30.0933 132.846 30.4333 132.699 30.78C132.566 31.1133 132.433 31.4267 132.299 31.72C132.179 32.0133 132.086 32.2333 132.019 32.38C131.966 32.5133 131.879 32.7533 131.759 33.1C131.653 33.4333 131.533 33.8 131.399 34.2C131.279 34.5867 131.166 34.9467 131.059 35.28L130.819 35.98C130.766 36.1667 130.679 36.4533 130.559 36.84C130.439 37.2133 130.313 37.68 130.179 38.24C130.353 38.1067 130.493 37.9533 130.599 37.78C130.719 37.5933 130.886 37.3867 131.099 37.16C131.326 36.9333 131.613 36.7133 131.959 36.5C132.319 36.2733 132.699 36.1267 133.099 36.06C133.966 35.9133 134.753 36.1933 135.459 36.9C135.993 37.4333 136.159 38.2333 135.959 39.3C135.879 39.74 135.779 40.1867 135.659 40.64C135.553 41.08 135.513 41.4867 135.539 41.86ZM145.676 35.42L145.756 35.44C145.782 35.44 145.796 35.4467 145.796 35.46C146.142 35.3267 146.429 35.4267 146.656 35.76C146.802 35.9867 146.916 36.3333 146.996 36.8C147.022 37.44 146.956 38.3267 146.796 39.46C146.489 41.7533 146.322 43.12 146.296 43.56C146.322 44.0267 146.036 44.3467 145.436 44.52C144.916 44.68 144.396 44.6733 143.876 44.5C143.329 44.3133 143.102 44.0267 143.196 43.64C143.089 43.84 142.982 43.98 142.876 44.06C142.769 44.1533 142.556 44.2733 142.236 44.42C141.929 44.58 141.489 44.7067 140.916 44.8C140.342 44.9067 139.769 44.9333 139.196 44.88C138.622 44.84 138.096 44.7 137.616 44.46C137.149 44.2333 136.836 43.8733 136.676 43.38C136.369 42.42 136.409 41.2 136.796 39.72C137.062 38.7467 137.542 37.8867 138.236 37.14C139.036 36.2867 139.942 35.58 140.956 35.02C141.716 34.6067 142.449 34.36 143.156 34.28C143.396 34.2533 143.602 34.26 143.776 34.3C143.962 34.34 144.156 34.38 144.356 34.42C144.569 34.46 144.769 34.52 144.956 34.6C145.436 34.8 145.676 35.0733 145.676 35.42ZM141.976 40.72C142.069 40.5333 142.142 40.3 142.196 40.02C142.262 39.74 142.349 39.4333 142.456 39.1C141.376 39.54 140.549 40.08 139.976 40.72C139.349 41.4267 139.389 41.9133 140.096 42.18C140.709 42.34 141.156 42.24 141.436 41.88C141.556 41.72 141.662 41.52 141.756 41.28C141.849 41.04 141.962 40.7933 142.096 40.54C142.056 40.6067 142.016 40.6667 141.976 40.72ZM150.578 35.34C151.472 34.98 152.072 34.9733 152.378 35.32C152.538 35.5067 152.618 35.7667 152.618 36.1V36.2C153.112 35.6267 153.972 35.1467 155.198 34.76C156.492 34.36 157.558 34.2467 158.398 34.42C159.492 34.6467 160.105 35.36 160.238 36.56C160.345 37.5733 160.112 38.86 159.538 40.42C159.352 40.82 159.205 41.1467 159.098 41.4C159.005 41.64 158.918 41.86 158.838 42.06C158.665 42.4333 158.392 42.88 158.018 43.4C157.805 43.8 157.472 44.1067 157.018 44.32C156.578 44.5333 156.138 44.6533 155.698 44.68C155.272 44.72 154.918 44.6533 154.638 44.48C154.358 44.32 154.278 44.06 154.398 43.7C154.705 42.8733 154.958 42.12 155.158 41.44C155.358 40.76 155.565 40.18 155.778 39.7C155.978 39.02 156.005 38.5933 155.858 38.42C155.738 38.2867 155.532 38.3067 155.238 38.48C154.985 38.64 154.805 38.8267 154.698 39.04C154.458 39.2133 154.005 39.9067 153.338 41.12C153.152 41.4533 152.965 41.7867 152.778 42.12C152.605 42.44 152.438 42.74 152.278 43.02C152.132 43.3 151.998 43.5333 151.878 43.72C151.772 43.9067 151.672 44.0267 151.578 44.08C151.498 44.1467 151.425 44.1867 151.358 44.2C151.305 44.2267 151.258 44.2533 151.218 44.28C151.178 44.3067 151.145 44.3933 151.118 44.54C151.065 44.8467 150.745 45.0733 150.158 45.22C149.212 45.46 148.358 45.42 147.598 45.1C147.345 44.9933 147.145 44.8467 146.998 44.66C146.692 44.0467 147.218 41.96 148.578 38.4C149.058 37.1467 149.372 36.4 149.518 36.16C149.852 35.6533 150.065 35.3667 150.158 35.3C150.265 35.2333 150.405 35.2467 150.578 35.34Z" fill="black"/>
</svg>
