<svg width="159" height="20" viewBox="0 0 159 20" fill="none" xmlns="http://www.w3.org/2000/svg">
<g clip-path="url(#clip0_10_886)">
<path d="M16.9538 16.6598C16.5234 16.6598 16.1139 16.6043 15.7251 16.4932C15.3364 16.3682 14.9615 16.1947 14.6006 15.9726V15.9934C13.9203 15.563 13.5801 14.7716 13.5801 13.6193V12.5988C13.5801 12.0296 13.6773 11.5368 13.8717 11.1202C14.0799 10.6899 14.3645 10.3497 14.7255 10.0998H14.7047C15.0518 9.86383 15.4197 9.69023 15.8084 9.57923C16.1972 9.45423 16.572 9.39173 16.933 9.39173H21.5354V7.45503C21.5354 7.10793 21.4244 6.79553 21.2022 6.51786C20.994 6.22631 20.633 6.08053 20.1193 6.08053H17.6827C17.1552 6.08053 16.7872 6.21242 16.579 6.47621C16.3846 6.72613 16.2874 7.02463 16.2874 7.37173V7.53833C16.2874 8.26023 15.8987 8.62123 15.1212 8.62123C14.3437 8.62123 13.955 8.26023 13.955 7.53833V7.35083C13.955 6.78163 14.0522 6.30267 14.2465 5.91393C14.4548 5.52518 14.7325 5.19892 15.0796 4.93513H15.0587C15.4197 4.69911 15.7946 4.50474 16.1833 4.35202C16.5859 4.1993 16.9677 4.12294 17.3287 4.12294H20.4942C20.8412 4.12294 21.2092 4.1993 21.5979 4.35202C22.0005 4.50474 22.3754 4.69911 22.7225 4.93513H22.7016C23.0626 5.19892 23.3403 5.54601 23.5347 5.9764C23.729 6.39291 23.8262 6.87883 23.8262 7.43413V15.7851C23.8262 16.4515 23.4444 16.7848 22.6808 16.7848C22.5281 16.7848 22.3823 16.7778 22.2435 16.7639C22.1185 16.75 22.0005 16.7153 21.8895 16.6598C21.7923 16.5904 21.709 16.5001 21.6396 16.3891C21.584 16.2641 21.5563 16.1045 21.5563 15.9101L21.5354 11.3493H17.3287C17.0233 11.3493 16.7872 11.384 16.6206 11.4535C16.454 11.5229 16.3221 11.6339 16.2249 11.7867C16.1139 12.0227 16.0306 12.2101 15.975 12.3489C15.9334 12.4739 15.9126 12.6197 15.9126 12.7863V13.5985C15.9126 13.9594 16.0167 14.2371 16.2249 14.4315C16.4471 14.612 16.8219 14.7022 17.3495 14.7022H19.682C20.1957 14.7022 20.4525 15.0285 20.4525 15.681C20.4525 15.9587 20.39 16.1947 20.2651 16.3891C20.1401 16.5696 19.9458 16.6598 19.682 16.6598H16.9538ZM32.9759 7.60083C32.9759 7.42033 32.9481 7.24673 32.8926 7.08013C32.8371 6.89963 32.7676 6.73303 32.6843 6.58034C32.5038 6.24713 32.129 6.08053 31.5598 6.08053H30.2269C29.6577 6.08053 29.2759 6.24713 29.0815 6.58034C28.9149 6.89963 28.8316 7.23983 28.8316 7.60083V15.8476C28.8316 16.5001 28.4498 16.8264 27.6862 16.8264C26.8949 16.8264 26.4992 16.5001 26.4992 15.8476V7.41333C26.4992 6.2749 26.874 5.44188 27.6238 4.91431C28.3874 4.38673 29.1301 4.12294 29.8521 4.12294H31.9554C32.2748 4.12294 32.6288 4.18542 33.0175 4.31037C33.4063 4.43532 33.7811 4.62969 34.1421 4.89348C34.4892 4.62969 34.8502 4.43532 35.225 4.31037C35.6138 4.18542 35.9817 4.12294 36.3288 4.12294H38.4113C39.1471 4.12294 39.883 4.38673 40.6188 4.91431C41.3824 5.428 41.7642 6.26102 41.7642 7.41333V15.8476C41.7642 16.5001 41.3755 16.8264 40.598 16.8264C39.8205 16.8264 39.4318 16.5001 39.4318 15.8476V7.60083C39.4318 7.42033 39.4109 7.23983 39.3693 7.05933C39.3276 6.87883 39.2513 6.71223 39.1402 6.55951L39.161 6.58034C39.05 6.39985 38.9111 6.2749 38.7445 6.20548C38.5779 6.12218 38.335 6.08053 38.0156 6.08053H36.7036C36.1205 6.08053 35.7387 6.24713 35.5582 6.58034C35.3778 6.88573 35.2875 7.22593 35.2875 7.60083V15.8476C35.2875 16.5001 34.9057 16.8264 34.1421 16.8264C33.3646 16.8264 32.9759 16.5001 32.9759 15.8476V7.60083ZM44.149 6.08053C43.6492 6.08053 43.3854 5.75426 43.3577 5.10174C43.3577 4.44921 43.6215 4.12294 44.149 4.12294H51.3755C51.8197 4.12294 52.1668 4.1993 52.4167 4.35202C52.6805 4.49086 52.8263 4.68523 52.8541 4.93513C52.8679 5.15727 52.861 5.37941 52.8332 5.60154C52.8193 5.82368 52.7708 5.99028 52.6875 6.10135L46.2941 14.7022H52.1876C52.6875 14.7022 52.9374 15.0285 52.9374 15.681C52.9651 16.0142 52.9096 16.2641 52.7708 16.4307C52.6319 16.5834 52.4375 16.6598 52.1876 16.6598H44.7113C43.8089 16.6598 43.323 16.396 43.2535 15.8684C43.2119 15.3825 43.2605 14.9868 43.3993 14.6814L49.8135 6.08053H44.149ZM57.8521 16.6598C57.4218 16.6598 57.0122 16.6043 56.6235 16.4932C56.2347 16.3682 55.8599 16.1947 55.4989 15.9726V15.9934C54.8186 15.563 54.4784 14.7716 54.4784 13.6193V12.5988C54.4784 12.0296 54.5756 11.5368 54.77 11.1202C54.9782 10.6899 55.2629 10.3497 55.6238 10.0998H55.603C55.9501 9.86383 56.318 9.69023 56.7068 9.57923C57.0955 9.45423 57.4704 9.39173 57.8313 9.39173H62.4337V7.45503C62.4337 7.10793 62.3227 6.79553 62.1005 6.51786C61.8923 6.22631 61.5313 6.08053 61.0176 6.08053H58.581C58.0535 6.08053 57.6855 6.21242 57.4773 6.47621C57.2829 6.72613 57.1857 7.02463 57.1857 7.37173V7.53833C57.1857 8.26023 56.797 8.62123 56.0195 8.62123C55.242 8.62123 54.8533 8.26023 54.8533 7.53833V7.35083C54.8533 6.78163 54.9505 6.30267 55.1448 5.91393C55.3531 5.52518 55.6308 5.19892 55.9779 4.93513H55.957C56.318 4.69911 56.6929 4.50474 57.0816 4.35202C57.4842 4.1993 57.866 4.12294 58.227 4.12294H61.3925C61.7396 4.12294 62.1075 4.1993 62.4962 4.35202C62.8988 4.50474 63.2737 4.69911 63.6208 4.93513H63.6C63.9609 5.19892 64.2386 5.54601 64.433 5.9764C64.6273 6.39291 64.7245 6.87883 64.7245 7.43413V15.7851C64.7245 16.4515 64.3427 16.7848 63.5791 16.7848C63.4264 16.7848 63.2806 16.7778 63.1418 16.7639C63.0168 16.75 62.8988 16.7153 62.7878 16.6598C62.6906 16.5904 62.6073 16.5001 62.5379 16.3891C62.4823 16.2641 62.4546 16.1045 62.4546 15.9101L62.4337 11.3493H58.227C57.9216 11.3493 57.6855 11.384 57.5189 11.4535C57.3523 11.5229 57.2204 11.6339 57.1233 11.7867C57.0122 12.0227 56.9289 12.2101 56.8734 12.3489C56.8317 12.4739 56.8109 12.6197 56.8109 12.7863V13.5985C56.8109 13.9594 56.915 14.2371 57.1233 14.4315C57.3454 14.612 57.7203 14.7022 58.2478 14.7022H60.5803C61.094 14.7022 61.3508 15.0285 61.3508 15.681C61.3508 15.9587 61.2883 16.1947 61.1634 16.3891C61.0384 16.5696 60.8441 16.6598 60.5803 16.6598H57.8521ZM88.4398 15.7851C88.4398 16.4515 88.058 16.7848 87.2944 16.7848C86.5308 16.7848 86.149 16.4515 86.149 15.7851V0.999132C86.149 0.332722 86.5308 -0.000488281 87.2944 -0.000488281C88.058 -0.000488281 88.4398 0.332722 88.4398 0.999132V4.12294H92.8339C93.542 4.12294 94.2778 4.38673 95.0414 4.91431C95.7911 5.44188 96.166 6.2749 96.166 7.41333V15.7851C96.166 16.4515 95.7842 16.7848 95.0206 16.7848C94.257 16.7848 93.8752 16.4515 93.8752 15.7851V7.60083C93.8752 7.23983 93.7641 6.89273 93.542 6.55951L93.5628 6.58034C93.3823 6.24713 93.0144 6.08053 92.4591 6.08053H88.4398V15.7851ZM102.066 16.6598C101.635 16.6598 101.226 16.6043 100.837 16.4932C100.448 16.3682 100.074 16.1947 99.7126 15.9726V15.9934C99.0316 15.563 98.6916 14.7716 98.6916 13.6193V12.5988C98.6916 12.0296 98.7886 11.5368 98.9836 11.1202C99.1916 10.6899 99.4766 10.3497 99.8376 10.0998H99.8166C100.164 9.86383 100.532 9.69023 100.92 9.57923C101.309 9.45423 101.684 9.39173 102.045 9.39173H106.647V7.45503C106.647 7.10793 106.536 6.79553 106.314 6.51786C106.106 6.22631 105.745 6.08053 105.231 6.08053H102.795C102.267 6.08053 101.899 6.21242 101.691 6.47621C101.497 6.72613 101.399 7.02463 101.399 7.37173V7.53833C101.399 8.26023 101.011 8.62123 100.233 8.62123C99.4556 8.62123 99.0666 8.26023 99.0666 7.53833V7.35083C99.0666 6.78163 99.1636 6.30267 99.3586 5.91393C99.5666 5.52518 99.8436 5.19892 100.192 4.93513H100.171C100.532 4.69911 100.907 4.50474 101.295 4.35202C101.698 4.1993 102.08 4.12294 102.441 4.12294H105.606C105.953 4.12294 106.321 4.1993 106.71 4.35202C107.113 4.50474 107.487 4.69911 107.834 4.93513H107.814C108.175 5.19892 108.452 5.54601 108.647 5.9764C108.841 6.39291 108.938 6.87883 108.938 7.43413V15.7851C108.938 16.4515 108.556 16.7848 107.793 16.7848C107.64 16.7848 107.494 16.7778 107.355 16.7639C107.231 16.75 107.113 16.7153 107.001 16.6598C106.904 16.5904 106.821 16.5001 106.752 16.3891C106.696 16.2641 106.668 16.1045 106.668 15.9101L106.647 11.3493H102.441C102.135 11.3493 101.899 11.384 101.733 11.4535C101.566 11.5229 101.434 11.6339 101.337 11.7867C101.226 12.0227 101.143 12.2101 101.087 12.3489C101.045 12.4739 101.025 12.6197 101.025 12.7863V13.5985C101.025 13.9594 101.129 14.2371 101.337 14.4315C101.559 14.612 101.934 14.7022 102.462 14.7022H104.794C105.308 14.7022 105.565 15.0285 105.565 15.681C105.565 15.9587 105.502 16.1947 105.377 16.3891C105.252 16.5696 105.058 16.6598 104.794 16.6598H102.066ZM113.923 15.7851C113.923 16.4515 113.541 16.7848 112.777 16.7848C112.014 16.7848 111.632 16.4515 111.632 15.7851V7.41333C111.632 6.84413 111.722 6.35126 111.903 5.93475C112.083 5.51824 112.368 5.17809 112.757 4.91431C113.492 4.38673 114.228 4.12294 114.964 4.12294H118.317C119.025 4.12294 119.761 4.38673 120.524 4.91431C121.274 5.44188 121.649 6.2749 121.649 7.41333V15.7851C121.649 16.4515 121.267 16.7848 120.504 16.7848C119.74 16.7848 119.358 16.4515 119.358 15.7851V7.60083C119.358 7.23983 119.247 6.89273 119.025 6.55951L119.046 6.58034C118.865 6.24713 118.497 6.08053 117.942 6.08053H115.339C114.77 6.08053 114.395 6.24713 114.214 6.58034C114.02 6.87193 113.923 7.21203 113.923 7.60083V15.7851Z" fill="#F9F5FF"/>
<path d="M81.8046 3.37437C82.0128 3.12447 82.2488 2.99951 82.5126 2.99951C82.8042 2.99951 83.1027 3.13141 83.4081 3.3952C83.5608 3.54791 83.6858 3.70063 83.783 3.85335C83.8941 4.00607 83.9496 4.15879 83.9496 4.31151C83.9496 4.56142 83.8593 4.77661 83.6789 4.9571L80.8883 8.20583L75.4528 14.5992V18.7851C75.4528 19.4515 75.0363 19.7848 74.2033 19.7848C73.3842 19.7848 72.9746 19.4515 72.9746 18.7851V4.01996C72.9746 3.35354 73.3842 3.02034 74.2033 3.02034C75.0363 3.02034 75.4528 3.35354 75.4528 4.01996V10.8298L81.8046 3.37437ZM78.8474 13.2664C78.7085 13.072 78.6391 12.836 78.6391 12.5583C78.6391 12.1418 78.8127 11.8086 79.1597 11.5587H79.1389C79.4166 11.3644 79.6943 11.2672 79.9719 11.2672C80.2357 11.2672 80.4579 11.4199 80.6384 11.7253L84.6577 17.5981L84.6368 17.5773C84.7618 17.7716 84.8243 17.9799 84.8243 18.202C84.8243 18.563 84.6438 18.8823 84.2828 19.16H84.3036C84.1509 19.2572 84.0051 19.3335 83.8663 19.3891C83.7275 19.4446 83.6025 19.4724 83.4914 19.4724C83.3804 19.4724 83.2624 19.4307 83.1374 19.3474C83.0263 19.2641 82.9153 19.16 82.8042 19.035L78.8474 13.2664Z" fill="#EFC100"/>
<path d="M129.225 12.496V10.6633C131.196 9.83027 133.119 9.00417 134.993 8.18507C136.882 7.36597 138.811 6.53294 140.783 5.68604V7.53947L131.349 11.5796C131.668 11.7185 132.036 11.8781 132.453 12.0586C132.883 12.2391 133.445 12.4821 134.14 12.7875C134.834 13.093 135.708 13.4748 136.764 13.9329C137.833 14.3911 139.172 14.9603 140.783 15.6406V17.4941L129.225 12.496ZM146.572 17.4941V15.6406L156.048 11.6005C155.298 11.2811 154.521 10.9549 153.716 10.6217C152.924 10.2746 152.126 9.92747 151.321 9.58037C150.515 9.23327 149.71 8.88617 148.905 8.53907C148.1 8.19197 147.322 7.85877 146.572 7.53947V5.68604C147.572 6.11643 148.551 6.53988 149.509 6.95638C150.467 7.37288 151.418 7.78937 152.362 8.20587C153.306 8.60857 154.257 9.01807 155.215 9.43458C156.173 9.83728 157.145 10.2468 158.131 10.6633V12.496L146.572 17.4941Z" fill="#EFC100"/>
<path d="M8.80526 1.02013C8.80526 0.353708 9.21476 0.0205078 10.034 0.0205078C10.867 0.0205078 11.2835 0.353708 11.2835 1.02013V15.7853C11.2835 16.4517 10.867 16.785 10.034 16.785C9.21476 16.785 8.80526 16.4517 8.80526 15.7853V1.02013ZM2.47431 15.7853C2.47431 16.4517 2.05781 16.785 1.22479 16.785C0.405664 16.785 -0.00390625 16.4517 -0.00390625 15.7853V1.02013C-0.00390625 0.353708 0.405664 0.0205078 1.22479 0.0205078C2.05781 0.0205078 2.47431 0.353708 2.47431 1.02013V15.7853ZM7.34746 8.0591C7.34746 8.545 7.18085 8.9546 6.84765 9.2878C6.51444 9.621 6.10487 9.7876 5.61895 9.7876C5.14691 9.7876 4.74428 9.621 4.41108 9.2878C4.07787 8.9546 3.91127 8.545 3.91127 8.0591C3.91127 7.5732 4.07787 7.1636 4.41108 6.8304C4.74428 6.49721 5.14691 6.3306 5.61895 6.3306C6.10487 6.3306 6.51444 6.49721 6.84765 6.8304C7.18085 7.1636 7.34746 7.5732 7.34746 8.0591Z" fill="#EFC100"/>
</g>
<defs>
<clipPath id="clip0_10_886">
<rect width="158.13" height="19.79" fill="white"/>
</clipPath>
</defs>
</svg>
