<svg width="258" height="56" viewBox="0 0 258 56" fill="none" xmlns="http://www.w3.org/2000/svg">
<path d="M27 0L33.0619 19.3475H52.6785L36.8083 31.305L42.8702 50.6525L27 38.695L11.1298 50.6525L17.1917 31.305L1.32147 19.3475H20.9381L27 0Z" fill="#EFC100"/>
<path d="M78 0L84.0619 19.3475H103.679L87.8083 31.305L93.8702 50.6525L78 38.695L62.1298 50.6525L68.1917 31.305L52.3215 19.3475H71.9381L78 0Z" fill="#EFC100"/>
<path d="M129 0L135.062 19.3475H154.679L138.808 31.305L144.87 50.6525L129 38.695L113.13 50.6525L119.192 31.305L103.321 19.3475H122.938L129 0Z" fill="#EFC100"/>
<path d="M180 0L186.062 19.3475H205.679L189.808 31.305L195.87 50.6525L180 38.695L164.13 50.6525L170.192 31.305L154.321 19.3475H173.938L180 0Z" fill="#EFC100"/>
<path d="M231 0L237.062 19.3475H256.679L240.808 31.305L246.87 50.6525L231 38.695L215.13 50.6525L221.192 31.305L205.321 19.3475H224.938L231 0Z" fill="#EFC100"/>
</svg>
